<svg width="178" height="30" viewBox="0 0 178 30" fill="none" xmlns="http://www.w3.org/2000/svg">
<g clip-path="url(#clip0_962_2755)">
<path d="M178 0L165.53 27.2263C164.759 28.9112 162.975 30.0066 161.005 30.0066C159.031 30.0066 157.251 28.9112 156.48 27.2263L147.7 8.05245L138.92 27.2263C138.149 28.9112 136.365 30.0066 134.395 30.0066C132.421 30.0066 130.641 28.9112 129.87 27.2263L117.397 0H124.77L134.482 21.2312L142.834 3.09375C143.656 1.22261 145.613 0 147.787 0C149.961 0 151.918 1.22261 152.739 3.09375L161.092 21.2312L170.81 0H178ZM53.41 0L43.6985 21.2312L35.3462 3.09375C34.5247 1.22261 32.5677 0 30.3936 0C28.2195 0 26.2625 1.22261 25.441 3.09375L17.0887 21.2312L7.37381 0H0L12.47 27.2263C13.2415 28.9112 15.0248 30.0066 16.9952 30.0066C18.9689 30.0066 20.7489 28.9112 21.5203 27.2263L30.3001 8.05245L39.0798 27.2263C39.8513 28.9112 41.6346 30.0066 43.605 30.0066C45.5787 30.0066 47.3587 28.9112 48.1301 27.2263L60.6035 0H53.4134H53.41ZM117.781 30.0066H125.154L112.688 2.78034C111.916 1.09538 110.136 0 108.163 0C106.189 0 104.409 1.09538 103.637 2.78034L91.1674 30.0066H98.3575L108.069 8.88096L117.781 30.0066ZM79.4521 30.0066H86.8259L74.3626 2.78034C73.5911 1.09538 71.8078 0 69.8374 0C67.8637 0 66.0838 1.09538 65.3123 2.78034L52.8423 30.0066H60.0324L69.7439 8.88096L79.4555 30.0066H79.4521Z" fill="#3D3935"/>
</g>
<defs>
<clipPath id="clip0_962_2755">
<rect width="178" height="30" fill="white"/>
</clipPath>
</defs>
</svg>
