<svg width="135" height="51" viewBox="0 0 135 51" fill="none" xmlns="http://www.w3.org/2000/svg">
<g clip-path="url(#clip0_962_2922)">
<path d="M73.4241 37.6079H68.8346C67.2693 37.6079 65.9978 38.9102 65.9978 40.5136V46.6155C65.9978 48.2188 67.2693 49.5212 68.8346 49.5212H73.4241C74.9894 49.5212 76.2609 48.2188 76.2609 46.6155V40.5136C76.2609 38.9102 74.9894 37.6079 73.4241 37.6079ZM74.2523 46.5377C74.2523 47.0384 73.8547 47.4457 73.3658 47.4457H68.8928C68.404 47.4457 68.0064 47.0384 68.0064 46.5377V40.594C68.0064 40.0933 68.404 39.686 68.8928 39.686H73.3658C73.8547 39.686 74.2523 40.0933 74.2523 40.594V46.5377ZM84.0316 43.6164L88.9504 49.5809H86.1009L82.6233 45.3235L79.3712 49.2669C79.123 49.5575 78.7101 49.6587 78.3479 49.5186C78.0009 49.3837 77.778 49.0594 77.778 48.691V37.652H79.7866V45.378L86.1009 37.652H88.9504L84.0316 43.6164ZM60.7827 47.4716H65.2228L63.6803 49.5445H58.7716V37.652H60.7802V47.4716H60.7827ZM54.1492 47.8764L57.1633 44.195V49.4485H51.8671L54.1492 46.6648V47.8764ZM57.1633 38.4692V40.5499L55.1548 43.0041V41.7926L48.8809 49.4511H46.0518L55.5803 37.8958C55.8285 37.6053 56.2363 37.5067 56.5985 37.6468C56.9429 37.7791 57.1658 38.1034 57.1658 38.4692H57.1633Z" fill="#3D3935"/>
<path d="M34.9047 45.0304C34.0461 45.0304 33.4914 45.544 33.1191 46.1278V43.2169H32.7012V49.5809H33.1191V48.6209C33.4762 49.1787 34.0385 49.6846 34.9047 49.6846C35.9508 49.6846 37.0146 48.8051 37.0146 47.3575V47.3393C37.0146 45.8917 35.9508 45.0304 34.9047 45.0304ZM36.5637 47.3757C36.5637 48.5691 35.8064 49.2747 34.8617 49.2747C33.9169 49.2747 33.0912 48.5068 33.0912 47.3653V47.3471C33.0912 46.2134 33.96 45.4377 34.8617 45.4377C35.7634 45.4377 36.5637 46.1874 36.5637 47.3549V47.3731V47.3757ZM41.5002 45.1367H41.9587L40.0768 49.7391C39.6943 50.6705 39.2511 51.0026 38.6305 51.0026C38.2987 51.0026 38.0606 50.9403 37.7719 50.8106L37.9163 50.437C38.1468 50.5512 38.3342 50.603 38.6559 50.603C39.1067 50.603 39.4056 50.3332 39.7273 49.5575L37.6427 45.1393H38.1265L39.9299 49.1139L41.4952 45.1393L41.5002 45.1367Z" fill="#3D3935"/>
<path d="M135 0L125.542 22.7629C124.957 24.1717 123.605 25.0875 122.11 25.0875C120.614 25.0875 119.264 24.1717 118.678 22.7629L112.02 6.73237L105.361 22.7629C104.776 24.1717 103.423 25.0875 101.929 25.0875C100.432 25.0875 99.0819 24.1717 98.4968 22.7629L89.0367 0H94.6292L101.995 17.7506L108.329 2.58658C108.952 1.02218 110.437 0 112.085 0C113.734 0 115.219 1.02218 115.842 2.58658L122.176 17.7506L129.547 0H135ZM40.5076 0L33.1421 17.7506L26.8075 2.58658C26.1844 1.02218 24.7002 0 23.0513 0C21.4024 0 19.9182 1.02218 19.2951 2.58658L12.9605 17.7506L5.59249 0H0L9.4576 22.7629C10.0427 24.1717 11.3952 25.0875 12.8896 25.0875C14.3865 25.0875 15.7365 24.1717 16.3216 22.7629L22.9804 6.73237L29.6392 22.7629C30.2243 24.1717 31.5768 25.0875 33.0712 25.0875C34.5681 25.0875 35.9181 24.1717 36.5032 22.7629L45.9633 0H40.5101H40.5076ZM89.3279 25.0875H94.9204L85.4654 2.32455C84.8803 0.91581 83.5303 0 82.0334 0C80.5365 0 79.1865 0.91581 78.6014 2.32455L69.1438 25.0875H74.597L81.9625 7.42507L89.3279 25.0875ZM60.2586 25.0875H65.8511L56.3986 2.32455C55.8135 0.91581 54.461 0 52.9666 0C51.4697 0 50.1197 0.91581 49.5346 2.32455L40.077 25.0875H45.5302L52.8957 7.42507L60.2612 25.0875H60.2586Z" fill="#3D3935"/>
</g>
<defs>
<clipPath id="clip0_962_2922">
<rect width="135" height="51" fill="white"/>
</clipPath>
</defs>
</svg>
